<svg width="20" height="13" xmlns="http://www.w3.org/2000/svg">
    <g fill-rule="nonzero" fill="none">
        <path fill="#3F51B5" d="M0 0h20v12.727H0z"/>
        <g fill="#FFF">
            <path d="m0 1.916 9.46 5.782L10.88 5.37 2.095 0H0z"/>
            <path d="M20 0h-1.64L9.573 5.37l1.422 2.328L20 2.194z"/>
            <path d="M10.995 4.669 9.573 6.996l9.377 5.731H20v-2.555z"/>
            <path d="M0 10.45v2.277h1.505l9.376-5.73L9.46 4.668z"/>
            <path d="M0 4.545h20v3.636H0z"/>
            <path d="M8.182 0h3.636v12.727H8.182z"/>
        </g>
        <g fill="#E53935">
            <path d="M6.917 4.545 0 .318v1.065l5.174 3.162zM19.231 0l-7.437 4.545h1.743L20 .595V0zM14.128 8.182 20 11.77v-1.065l-4.129-2.523zM6.326 8.182 0 12.048v.68h.633L8.07 8.181zM0 5.455h20v1.818H0z"/>
            <path d="M9.091 0h1.818v12.727H9.091z"/>
        </g>
    </g>
</svg>
