<svg width="10" height="11" xmlns="http://www.w3.org/2000/svg">
    <path d="M10 3.663a.662.662 0 0 0-.033-.143v-.047a.564.564 0 0 0-.106-.148L6.528.158a.597.597 0 0 0-.156-.1.187.187 0 0 0-.05 0A.507.507 0 0 0 6.14 0h-2.25c-.92 0-1.667.709-1.667 1.583v.528h-.555C.747 2.111 0 2.82 0 3.694v5.278c0 .875.746 1.584 1.667 1.584H6.11c.92 0 1.667-.71 1.667-1.584v-.528h.555c.92 0 1.667-.708 1.667-1.583V3.663zM6.667 1.8l1.439 1.367h-.884a.542.542 0 0 1-.555-.528v-.84zm0 7.172a.542.542 0 0 1-.556.528H1.667a.542.542 0 0 1-.556-.528V3.694c0-.291.249-.527.556-.527h.555V6.86c0 .875.746 1.583 1.667 1.583h2.778v.528zm2.222-2.11a.542.542 0 0 1-.556.527H3.89a.542.542 0 0 1-.556-.528V1.583c0-.291.25-.527.556-.527h1.667v1.583c0 .874.746 1.583 1.666 1.583H8.89v2.64z" fill="#858FA7" fill-rule="nonzero"/>
</svg>
