<svg width="14" height="12" xmlns="http://www.w3.org/2000/svg">
    <path d="M3.5 7.26h2.1c.387 0 .7-.326.7-.727 0-.4-.313-.726-.7-.726H3.5c-.387 0-.7.325-.7.726 0 .401.313.726.7.726zM11.9 0H2.1C.94 0 0 .975 0 2.178V8.71c0 1.203.94 2.178 2.1 2.178h9.8c1.16 0 2.1-.975 2.1-2.178V2.178C14 .975 13.06 0 11.9 0zm.7 8.711c0 .401-.313.726-.7.726H2.1a.713.713 0 0 1-.7-.726V4.356h11.2V8.71zm0-5.807H1.4v-.726c0-.401.313-.726.7-.726h9.8c.387 0 .7.325.7.726v.726z" fill="#858FA7" fill-rule="nonzero"/>
</svg>
