<svg width="14" height="14" xmlns="http://www.w3.org/2000/svg">
    <path d="M7 0C3.14 0 0 3.14 0 7s3.14 7 7 7 7-3.14 7-7-3.14-7-7-7zm-.583 1.294V3.5H4.685a6.1 6.1 0 0 1 .346-.766c.41-.752.896-1.228 1.386-1.44zm1.166 0c.49.212.976.688 1.386 1.44a6.1 6.1 0 0 1 .346.766H7.583V1.294zm-3.39.602c-.062.098-.126.189-.183.292A7.988 7.988 0 0 0 3.445 3.5H2.352a5.82 5.82 0 0 1 1.84-1.604zm5.614 0A5.82 5.82 0 0 1 11.648 3.5h-1.093a7.988 7.988 0 0 0-.565-1.313c-.057-.102-.121-.193-.183-.291zm-8.166 2.77h1.513c-.112.559-.192 1.14-.22 1.75h-1.73c.06-.615.2-1.207.437-1.75zm2.698 0h2.078v1.75H4.102c.031-.615.113-1.205.237-1.75zm3.244 0h2.078c.124.545.206 1.135.237 1.75H7.583v-1.75zm3.263 0h1.513c.237.543.376 1.135.438 1.75h-1.732a11.513 11.513 0 0 0-.219-1.75zM1.203 7.584h1.732c.027.611.107 1.192.219 1.75H1.64a5.807 5.807 0 0 1-.438-1.75zm2.899 0h2.315v1.75H4.339a10.429 10.429 0 0 1-.237-1.75zm3.481 0h2.315a10.429 10.429 0 0 1-.237 1.75H7.583v-1.75zm3.482 0h1.732a5.807 5.807 0 0 1-.438 1.75h-1.513c.112-.558.192-1.139.22-1.75zM2.352 10.5h1.093c.158.474.347.911.565 1.313.057.102.121.193.183.291A5.82 5.82 0 0 1 2.352 10.5zm2.333 0h1.732v2.206c-.49-.212-.976-.688-1.386-1.44a6.1 6.1 0 0 1-.346-.766zm2.898 0h1.732a6.1 6.1 0 0 1-.346.766c-.41.752-.896 1.228-1.386 1.44V10.5zm2.972 0h1.093a5.82 5.82 0 0 1-1.84 1.604c.06-.098.125-.189.182-.291.218-.402.407-.839.565-1.313z" fill="#858FA7" fill-rule="nonzero"/>
</svg>
