<svg width="70" height="19" xmlns="http://www.w3.org/2000/svg">
    <g fill-rule="nonzero" fill="none">
        <path d="M31.834 9.086a4.81 4.81 0 1 1-1.39-3.388l-1.19 1.192a3.126 3.126 0 1 0 .636 3.435l-1.402-1.764h3.317c.02.174.029.35.029.525zM46.743 11.082a3.321 3.321 0 1 0-.468 1.217l-1.404-.712c-.3.488-.829.79-1.402.797a1.732 1.732 0 0 1-1.628-1.302h4.902zm-4.85-1.278a1.658 1.658 0 0 1 3.153 0h-3.154zM60.332 7.149v.504a3.284 3.284 0 0 0-1.727-.492 3.323 3.323 0 1 0 1.737 6.151v.582h1.628V7.15h-1.638zm-1.831 5.197c-.942 0-1.707-.835-1.707-1.864 0-1.03.765-1.862 1.707-1.862.942 0 1.71.834 1.71 1.862 0 1.027-.764 1.864-1.708 1.864H58.5zM51.1 7.212a3.303 3.303 0 0 0-1.831.547v-.56H47.64v8.498h1.628v-2.39A3.32 3.32 0 1 0 51.1 7.211zm-.09 5.182c-.942 0-1.707-.832-1.707-1.861 0-1.03.765-1.862 1.707-1.862.943 0 1.71.834 1.71 1.862 0 1.027-.765 1.861-1.71 1.861zM69.97 7.238l-3.448 8.408H64.89l.82-2.163-2.842-6.288h1.634l2.02 4.471 1.816-4.428zM39.25 11.082a3.321 3.321 0 1 0-.468 1.217l-1.403-.712c-.3.488-.83.79-1.402.797a1.732 1.732 0 0 1-1.628-1.302h4.902zM34.4 9.804a1.658 1.658 0 0 1 3.154 0H34.4z" fill="#555F77"/>
        <path d="M16.047 2.755A9.397 9.397 0 1 0 18.8 9.401a9.36 9.36 0 0 0-2.753-6.646zm-.814 10.543a7.024 7.024 0 1 1-.84-8.821l-1.736 1.727a4.564 4.564 0 1 0 .93 5.016L11.53 8.638h4.85a6.984 6.984 0 0 1-1.14 4.66h-.007z" fill="#0052CC"/>
    </g>
</svg>
